<mxfile host="app.diagrams.net" agent="Mozilla/5.0 (Windows NT 10.0; Win64; x64) AppleWebKit/537.36 (KHTML, like Gecko) Chrome/131.0.0.0 Safari/537.36" version="26.0.5">
  <diagram name="Page-1" id="iHy0LsQDet37pk_qS2Ei">
    <mxGraphModel dx="1434" dy="738" grid="1" gridSize="10" guides="1" tooltips="1" connect="1" arrows="1" fold="1" page="1" pageScale="1" pageWidth="850" pageHeight="1100" math="0" shadow="0">
      <root>
        <mxCell id="0" />
        <mxCell id="1" parent="0" />
        <mxCell id="9x35c1tjzNqXPCGpEiFx-11" value="" style="group;fillColor=#FFFAD6;strokeColor=#82b366;" vertex="1" connectable="0" parent="1">
          <mxGeometry x="280" y="110" width="266" height="310" as="geometry" />
        </mxCell>
        <mxCell id="9x35c1tjzNqXPCGpEiFx-1" value="truecare-solutions&lt;div&gt;platform&lt;/div&gt;" style="rounded=0;whiteSpace=wrap;html=1;fillColor=#fff2cc;strokeColor=#d6b656;align=center;" vertex="1" parent="9x35c1tjzNqXPCGpEiFx-11">
          <mxGeometry x="21.28" y="44.28571428571429" width="223.44" height="166.07142857142858" as="geometry" />
        </mxCell>
        <mxCell id="9x35c1tjzNqXPCGpEiFx-4" value="client&lt;div&gt;module&lt;/div&gt;" style="whiteSpace=wrap;html=1;aspect=fixed;fillColor=#dae8fc;strokeColor=#6c8ebf;" vertex="1" parent="9x35c1tjzNqXPCGpEiFx-11">
          <mxGeometry x="31.92" y="188.21428571428572" width="63.84" height="63.84" as="geometry" />
        </mxCell>
        <mxCell id="9x35c1tjzNqXPCGpEiFx-5" value="staff&lt;div&gt;module&lt;/div&gt;" style="whiteSpace=wrap;html=1;aspect=fixed;fillColor=#dae8fc;strokeColor=#6c8ebf;" vertex="1" parent="9x35c1tjzNqXPCGpEiFx-11">
          <mxGeometry x="106.4" y="188.21428571428572" width="63.84" height="63.84" as="geometry" />
        </mxCell>
        <mxCell id="9x35c1tjzNqXPCGpEiFx-22" value="" style="image;aspect=fixed;html=1;points=[];align=center;fontSize=12;image=img/lib/azure2/databases/SQL_Database.svg;" vertex="1" parent="9x35c1tjzNqXPCGpEiFx-11">
          <mxGeometry x="25.28" y="238" width="30" height="40" as="geometry" />
        </mxCell>
        <mxCell id="9x35c1tjzNqXPCGpEiFx-23" value="" style="image;aspect=fixed;html=1;points=[];align=center;fontSize=12;image=img/lib/azure2/databases/SQL_Database.svg;" vertex="1" parent="9x35c1tjzNqXPCGpEiFx-11">
          <mxGeometry x="98.75999999999999" y="240" width="30" height="40" as="geometry" />
        </mxCell>
        <mxCell id="9x35c1tjzNqXPCGpEiFx-7" value="" style="image;sketch=0;aspect=fixed;html=1;points=[];align=center;fontSize=12;image=img/lib/mscae/Docker.svg;" vertex="1" parent="9x35c1tjzNqXPCGpEiFx-11">
          <mxGeometry x="-18.08" y="-20" width="50" height="41" as="geometry" />
        </mxCell>
        <mxCell id="9x35c1tjzNqXPCGpEiFx-17" value="" style="group;fillColor=#d5e8d4;strokeColor=#82b366;" vertex="1" connectable="0" parent="1">
          <mxGeometry x="305.5" y="460" width="215" height="50" as="geometry" />
        </mxCell>
        <mxCell id="9x35c1tjzNqXPCGpEiFx-30" value="" style="group" vertex="1" connectable="0" parent="9x35c1tjzNqXPCGpEiFx-17">
          <mxGeometry x="-18.5" y="-20" width="233.5" height="70" as="geometry" />
        </mxCell>
        <mxCell id="9x35c1tjzNqXPCGpEiFx-9" value="CI/CD Pipeline - Github Actions" style="rounded=0;whiteSpace=wrap;html=1;fillColor=#f5f5f5;strokeColor=#666666;fontColor=#333333;" vertex="1" parent="9x35c1tjzNqXPCGpEiFx-30">
          <mxGeometry x="18.5" y="20" width="215" height="50" as="geometry" />
        </mxCell>
        <mxCell id="9x35c1tjzNqXPCGpEiFx-26" value="" style="shape=image;html=1;verticalAlign=top;verticalLabelPosition=bottom;labelBackgroundColor=#ffffff;imageAspect=0;aspect=fixed;image=https://cdn4.iconfinder.com/data/icons/miu-black-social-2/60/github-128.png" vertex="1" parent="9x35c1tjzNqXPCGpEiFx-30">
          <mxGeometry width="37" height="37" as="geometry" />
        </mxCell>
        <mxCell id="9x35c1tjzNqXPCGpEiFx-27" value="" style="endArrow=classic;html=1;rounded=0;entryX=0.5;entryY=0;entryDx=0;entryDy=0;" edge="1" parent="1" target="9x35c1tjzNqXPCGpEiFx-9">
          <mxGeometry width="50" height="50" relative="1" as="geometry">
            <mxPoint x="413" y="420" as="sourcePoint" />
            <mxPoint x="640" y="460" as="targetPoint" />
          </mxGeometry>
        </mxCell>
        <mxCell id="9x35c1tjzNqXPCGpEiFx-28" value="" style="endArrow=classic;html=1;rounded=0;exitX=0.5;exitY=1;exitDx=0;exitDy=0;entryX=0.5;entryY=0;entryDx=0;entryDy=0;" edge="1" parent="1" source="9x35c1tjzNqXPCGpEiFx-9" target="9x35c1tjzNqXPCGpEiFx-8">
          <mxGeometry width="50" height="50" relative="1" as="geometry">
            <mxPoint x="630" y="530" as="sourcePoint" />
            <mxPoint x="680" y="480" as="targetPoint" />
          </mxGeometry>
        </mxCell>
        <mxCell id="9x35c1tjzNqXPCGpEiFx-29" value="" style="group" vertex="1" connectable="0" parent="1">
          <mxGeometry x="239.5" y="520" width="318.5" height="117" as="geometry" />
        </mxCell>
        <mxCell id="9x35c1tjzNqXPCGpEiFx-8" value="" style="rounded=0;whiteSpace=wrap;html=1;fillColor=#ffe6cc;strokeColor=#d79b00;" vertex="1" parent="9x35c1tjzNqXPCGpEiFx-29">
          <mxGeometry x="27.5" y="29.5" width="291" height="87.5" as="geometry" />
        </mxCell>
        <mxCell id="9x35c1tjzNqXPCGpEiFx-18" value="" style="outlineConnect=0;dashed=0;verticalLabelPosition=bottom;verticalAlign=top;align=center;html=1;shape=mxgraph.aws3.cloud_2;fillColor=#F58534;gradientColor=none;" vertex="1" parent="9x35c1tjzNqXPCGpEiFx-29">
          <mxGeometry width="40" height="40" as="geometry" />
        </mxCell>
        <mxCell id="9x35c1tjzNqXPCGpEiFx-20" value="ECR" style="outlineConnect=0;dashed=0;verticalLabelPosition=bottom;verticalAlign=top;align=center;html=1;shape=mxgraph.aws3.ecr_registry;fillColor=#F58534;gradientColor=none;" vertex="1" parent="9x35c1tjzNqXPCGpEiFx-29">
          <mxGeometry x="48" y="47" width="40" height="45" as="geometry" />
        </mxCell>
        <mxCell id="9x35c1tjzNqXPCGpEiFx-31" value="" style="aspect=fixed;sketch=0;html=1;dashed=0;whitespace=wrap;verticalLabelPosition=bottom;verticalAlign=top;fillColor=#2875E2;strokeColor=#ffffff;points=[[0.005,0.63,0],[0.1,0.2,0],[0.9,0.2,0],[0.5,0,0],[0.995,0.63,0],[0.72,0.99,0],[0.5,1,0],[0.28,0.99,0]];shape=mxgraph.kubernetes.icon2;prIcon=api" vertex="1" parent="1">
          <mxGeometry x="530" y="87" width="44.79" height="43" as="geometry" />
        </mxCell>
      </root>
    </mxGraphModel>
  </diagram>
</mxfile>
